<svg width="46" height="46" viewBox="0 0 46 46" fill="none" xmlns="http://www.w3.org/2000/svg">
<path d="M22.5 25.0625C26.3818 25.0625 29.5312 21.9131 29.5312 18.0312C29.5312 14.1494 26.3818 11 22.5 11C18.6182 11 15.4688 14.1494 15.4688 18.0312C15.4688 21.9131 18.6182 25.0625 22.5 25.0625ZM28.75 26.625H26.0596C24.9756 27.123 23.7695 27.4062 22.5 27.4062C21.2305 27.4062 20.0293 27.123 18.9404 26.625H16.25C12.7979 26.625 10 29.4229 10 32.875V33.6562C10 34.9502 11.0498 36 12.3438 36H32.6562C33.9502 36 35 34.9502 35 33.6562V32.875C35 29.4229 32.2021 26.625 28.75 26.625Z" fill="#3C4557"/>
<circle cx="23" cy="23" r="21.5" stroke="#3C4557" stroke-width="3"/>
</svg>
