<svg width="138" height="48" viewBox="0 0 138 48" fill="none" xmlns="http://www.w3.org/2000/svg">
<path d="M7.92 30.5H9.9V25.28H13.08C15.66 25.28 17.52 23.48 17.52 20.8C17.52 18.12 15.66 16.38 13.08 16.38H7.92V30.5ZM9.9 23.56V18.1H12.78C14.46 18.1 15.5 19.1 15.5 20.8C15.5 22.5 14.46 23.56 12.76 23.56H9.9ZM19.7684 30.5H21.7084V26.36C21.7084 25.74 21.7684 25.12 21.9484 24.54C22.4084 23.04 23.5484 22.16 24.7884 22.16C25.0884 22.16 25.3484 22.22 25.3484 22.22V20.3C25.3484 20.3 25.1084 20.26 24.8484 20.26C23.2884 20.26 22.1084 21.42 21.6484 22.9H21.6084C21.6084 22.9 21.6484 22.56 21.6484 22.14V20.38H19.7684V30.5ZM26.5698 25.42C26.5698 28.5 29.0098 30.74 32.0298 30.74C35.0498 30.74 37.4898 28.5 37.4898 25.42C37.4898 22.36 35.0498 20.14 32.0298 20.14C29.0098 20.14 26.5698 22.36 26.5698 25.42ZM28.5498 25.42C28.5498 23.32 30.1298 21.82 32.0298 21.82C33.9498 21.82 35.5098 23.32 35.5098 25.42C35.5098 27.54 33.9498 29.06 32.0298 29.06C30.1298 29.06 28.5498 27.54 28.5498 25.42ZM39.8903 30.5H41.8303V25.88C41.8303 25.42 41.8503 24.96 41.9503 24.56C42.3303 23.12 43.3703 21.9 44.8503 21.9C46.4103 21.9 46.6103 23.12 46.6103 24.44V30.5H48.5503V25.88C48.5503 25.36 48.5903 24.9 48.6903 24.48C49.0503 23.1 50.1103 21.9 51.5303 21.9C53.0503 21.9 53.3303 23.02 53.3303 24.44V30.5H55.2703V24.02C55.2703 21.44 54.2103 20.14 51.9303 20.14C50.2903 20.14 48.8903 21.22 48.3303 22.44H48.2903C47.9503 20.92 46.9503 20.14 45.2503 20.14C43.6703 20.14 42.2503 21.28 41.7703 22.46H41.7303C41.7303 22.46 41.7703 22.12 41.7703 21.72V20.38H39.8903V30.5ZM57.5316 25.42C57.5316 28.5 59.9716 30.74 62.9916 30.74C66.0116 30.74 68.4516 28.5 68.4516 25.42C68.4516 22.36 66.0116 20.14 62.9916 20.14C59.9716 20.14 57.5316 22.36 57.5316 25.42ZM59.5116 25.42C59.5116 23.32 61.0916 21.82 62.9916 21.82C64.9116 21.82 66.4716 23.32 66.4716 25.42C66.4716 27.54 64.9116 29.06 62.9916 29.06C61.0916 29.06 59.5116 27.54 59.5116 25.42ZM70.132 25.44C70.132 28.48 72.372 30.74 75.552 30.74C78.192 30.74 79.592 29.12 79.592 29.12L78.812 27.7C78.812 27.7 77.572 29.06 75.692 29.06C73.592 29.06 72.112 27.48 72.112 25.42C72.112 23.34 73.592 21.82 75.632 21.82C77.352 21.82 78.432 22.98 78.432 22.98L79.352 21.62C79.352 21.62 78.092 20.14 75.552 20.14C72.372 20.14 70.132 22.44 70.132 25.44ZM81.8695 18.36H83.8295V16.38H81.8695V18.36ZM81.8895 30.5H83.8295V20.38H81.8895V30.5ZM86.23 25.42C86.23 28.5 88.67 30.74 91.69 30.74C94.71 30.74 97.15 28.5 97.15 25.42C97.15 22.36 94.71 20.14 91.69 20.14C88.67 20.14 86.23 22.36 86.23 25.42ZM88.21 25.42C88.21 23.32 89.79 21.82 91.69 21.82C93.61 21.82 95.17 23.32 95.17 25.42C95.17 27.54 93.61 29.06 91.69 29.06C89.79 29.06 88.21 27.54 88.21 25.42ZM99.5505 30.5H101.49V25.76C101.49 25.26 101.53 24.8 101.65 24.4C102.07 22.94 103.31 21.92 104.85 21.92C106.47 21.92 106.77 23.04 106.77 24.46V30.5H108.71V24.02C108.71 21.44 107.61 20.14 105.23 20.14C103.03 20.14 101.83 21.58 101.43 22.46H101.39C101.39 22.46 101.43 22.12 101.43 21.72V20.38H99.5505V30.5ZM111.001 25.44C111.001 28.44 113.181 30.74 116.361 30.74C118.781 30.74 120.281 29.3 120.281 29.3L119.481 27.88C119.481 27.88 118.221 29.06 116.481 29.06C114.681 29.06 113.101 27.94 113.001 25.72H120.381C120.381 25.72 120.441 25.14 120.441 24.88C120.441 22.26 118.921 20.14 116.061 20.14C113.181 20.14 111.001 22.22 111.001 25.44ZM113.061 24.26C113.341 22.6 114.541 21.68 116.021 21.68C117.321 21.68 118.401 22.52 118.461 24.26H113.061ZM122.075 29.26C122.075 29.26 123.435 30.74 125.915 30.74C128.135 30.74 129.575 29.48 129.575 27.8C129.575 24.48 124.375 24.88 124.375 23.06C124.375 22.18 125.195 21.82 126.035 21.82C127.635 21.82 128.535 22.72 128.535 22.72L129.315 21.26C129.315 21.26 128.275 20.14 126.055 20.14C124.035 20.14 122.395 21.18 122.395 23.02C122.395 26.32 127.595 25.94 127.595 27.8C127.595 28.62 126.755 29.06 125.915 29.06C124.155 29.06 123.015 27.88 123.015 27.88L122.075 29.26Z" fill="white"/>
<line x1="15" y1="38.5" x2="123" y2="38.5" stroke="white"/>
</svg>
